<svg version="1.2" xmlns="http://www.w3.org/2000/svg" viewBox="0 0 800 800" width="800" height="800">
	<title>fist</title>
	<style>
		.s0 { fill: #ffffff } 
	</style>
	<path class="s0" d="m406.2 715.9c-11.3-2.5-15.9-5-22.4-11.9-9.3-9.8-10.7-13.8-10.6-30.9 0-17.5 3.2-28.6 14.6-51.5l6.5-13.2h22c20.1 0 23-0.6 33.6-3.9 17.4-5.8 35.2-18.1 44.8-31.1l4.3-5.7 11.7 11.9c12.4 12.6 23.7 19.8 39.9 25.5 13 4.5 43 4.6 59.6 0 38-10.3 64.7-40.2 74.3-83.3 1.1-4.9 6.8-49.6 12.6-99.2 5.8-49.5 10.7-89.9 11-89.7 1.3 1.3 17.5 62.9 22.8 87.1 25.8 116 25.5 195-0.9 241.1-10.8 18.9-31.9 33.9-54.1 38.6-14.3 3-22.2 2.7-34.6-1.4-32.3-10.5-69.9-8.7-138.5 6.5-53.6 11.9-79.6 14.8-96.6 11.1zm-160.8-124.6c-11.7-2.6-24.7-8-33.8-13.8l-7.3-4.7v-136.6-136.5l-14.6-1c-8.1-0.6-14.9-0.8-15.1-0.6-0.3 0-0.9 61.5-1.5 136.2l-1.1 135.8-5.4 2.1c-15.9 6.4-53 6.9-68.2 1.1-23.4-9.1-39.7-30.2-46.5-60.4-1.5-6.9-1.9-33.8-1.9-131.8v-123.2l3.3-11.6c7.3-26 23.7-52 41.2-65.2 19.3-14.6 36.4-19.5 68.3-19.5h19.1l8.7-8.8c4.7-4.9 12.3-11.7 16.7-15.1 32.3-25.2 75.3-31.8 117.7-18.1l13 4.1 3.7-4.6c12.2-15 28.5-26.2 47.3-32.5 10.5-3.5 13.7-3.9 33.4-4 24.4 0 33.3 1.7 51 10.1 12.9 6.1 24.3 13.8 37 25l9.7 8.7 11.3-2.1c15-2.9 56.4-3.2 67-0.6 11.5 2.8 35.4 14.7 46.5 23.2 10 7.5 21 20.8 26.6 32.1 8.2 16.3 13.8 42.4 13.8 64 0 7.2-6.7 70-15.2 142.6-16.4 139.3-16.5 139.4-27 158.2-9.4 16.6-25.7 28.4-44.5 32.3-4.4 0.9-14.5 1.4-22.5 1-13-0.5-15.7-1.1-24.2-5.3-12.5-6.2-24.7-18.4-30.7-30.7l-4.7-9.4v-140.5-140.6l4.6-9.6 4.5-9.6-10.5-10.5c-5.8-5.7-11.3-10-12.1-9.5-3 1.8-11.6 17.8-14.9 27.7l-3.4 10.1-0.7 139.8c-0.7 123.6-1.1 140.5-3.1 145.9-6.4 16.6-18.4 29.6-34.3 37.1-8.6 4.1-11.5 4.7-25.3 5.1-25.2 0.9-45.6-4-56.4-13.8l-5.6-5.1v-145.5-145.4h-15.2-15.2l-0.3 154.7-0.4 154.6-10.8 5.5c-6 2.9-14.8 6.4-19.6 7.7-12.2 3.2-41.2 4-52.4 1.5z"/>
</svg>